<svg data-v-423bf9ae="" xmlns="http://www.w3.org/2000/svg" viewBox="0 0 1322.6626698873395 193" class="fontAboveSlogan"><!----><!----><!----><g data-v-423bf9ae="" id="f99434e0-6c85-4f86-907c-13a1af2c347a" fill="#000000" transform="matrix(11.363634885835445,0,0,11.363634885835445,95.75143364194332,-32.15817649995043)"><path d="M0.49 13.30L4.83 13.30C6.96 13.30 8.33 12.53 8.33 10.58C8.33 8.93 7.15 8.20 5.80 8.02L5.80 7.99C7.11 7.73 7.88 6.92 7.88 5.84C7.88 5.07 7.57 4.49 7.01 4.12C6.47 3.75 5.66 3.61 4.54 3.61L0.49 3.61L0.49 4.02C1.72 4.10 1.75 4.13 1.75 4.91L1.75 12.00C1.75 12.78 1.72 12.81 0.49 12.89ZM3.14 11.73L3.14 8.33L4.14 8.33C5.88 8.33 6.83 9.20 6.83 10.68C6.83 12.36 5.68 12.81 4.48 12.81C3.36 12.81 3.14 12.60 3.14 11.73ZM3.14 7.84L3.14 4.80C3.14 4.20 3.18 4.10 4.27 4.10C5.29 4.10 6.41 4.48 6.41 5.92C6.41 7.29 5.53 7.84 4.07 7.84ZM9.56 11.48C9.56 12.53 10.26 13.47 11.58 13.47C12.39 13.47 13.22 12.92 13.66 12.63C13.86 13.15 14.08 13.47 14.57 13.47C15.09 13.47 15.69 13.31 16.23 13.05L16.14 12.71C15.95 12.75 15.64 12.78 15.43 12.73C15.18 12.67 14.94 12.40 14.94 11.52L14.94 8.13C14.94 7.32 14.76 6.27 12.64 6.27C11.06 6.27 9.81 7.10 9.81 7.87C9.81 8.32 10.33 8.53 10.60 8.53C10.89 8.53 10.98 8.37 11.05 8.13C11.35 7.10 11.93 6.76 12.49 6.76C13.03 6.76 13.68 7.04 13.68 8.16L13.68 8.75C13.33 9.11 11.97 9.46 10.86 9.81C9.86 10.12 9.56 10.82 9.56 11.48ZM10.98 11.28C10.98 10.63 11.28 10.29 12.07 10.00C12.63 9.79 13.37 9.52 13.68 9.32L13.68 11.30C13.68 12.43 12.81 12.73 12.26 12.73C11.40 12.73 10.98 12.11 10.98 11.28ZM16.48 13.30L19.89 13.30L19.89 12.89C18.90 12.82 18.84 12.80 18.84 12.08L18.84 3.00L18.75 2.91L16.55 3.26L16.55 3.61L17.08 3.67C17.44 3.71 17.53 3.78 17.53 4.31L17.53 12.08C17.53 12.80 17.49 12.82 16.48 12.89ZM20.47 6.97L21 7.04C21.36 7.10 21.45 7.17 21.45 7.67L21.45 11.37C21.45 12.98 22.40 13.47 23.44 13.47C24.63 13.47 25.59 12.66 26.00 12.46L26.14 13.30L28.38 13.30L28.38 12.89C27.41 12.82 27.33 12.80 27.33 12.08L27.33 6.36L27.23 6.27L25.03 6.62L25.03 6.97L25.56 7.04C25.93 7.10 26.01 7.17 26.01 7.67L26.01 10.82C26.01 11.21 25.97 11.52 25.90 11.66C25.58 12.31 24.91 12.71 24.18 12.71C23.37 12.71 22.76 12.21 22.76 11.12L22.76 6.36L22.67 6.27L20.47 6.62ZM29.04 13.30L32.45 13.30L32.45 12.89C31.46 12.82 31.40 12.80 31.40 12.08L31.40 8.81C31.40 8.46 31.42 8.26 31.51 8.06C31.78 7.50 32.40 7.03 33.17 7.03C34.37 7.03 34.51 7.91 34.51 8.78L34.51 12.08C34.51 12.80 34.47 12.82 33.46 12.89L33.46 13.30L36.88 13.30L36.88 12.89C35.88 12.82 35.83 12.80 35.83 12.08L35.83 8.81C35.83 8.46 35.84 8.26 35.92 8.04C36.13 7.48 36.74 7.03 37.52 7.03C38.40 7.03 38.93 7.53 38.93 8.78L38.93 12.08C38.93 12.80 38.89 12.82 37.88 12.89L37.88 13.30L41.30 13.30L41.30 12.89C40.31 12.82 40.25 12.80 40.25 12.08L40.25 8.50C40.25 7.08 39.49 6.27 38.16 6.27C37.02 6.27 36.19 7.04 35.70 7.35C35.36 6.69 34.83 6.27 33.85 6.27C32.77 6.27 31.89 6.97 31.40 7.34L31.28 6.27L29.11 6.62L29.11 6.97L29.64 7.04C30.00 7.10 30.09 7.17 30.09 7.67L30.09 12.08C30.09 12.80 30.04 12.82 29.04 12.89ZM42.20 11.48C42.20 12.53 42.90 13.47 44.21 13.47C45.02 13.47 45.85 12.92 46.30 12.63C46.49 13.15 46.72 13.47 47.21 13.47C47.73 13.47 48.33 13.31 48.86 13.05L48.78 12.71C48.58 12.75 48.27 12.78 48.06 12.73C47.81 12.67 47.57 12.40 47.57 11.52L47.57 8.13C47.57 7.32 47.39 6.27 45.28 6.27C43.69 6.27 42.45 7.10 42.45 7.87C42.45 8.32 42.97 8.53 43.23 8.53C43.53 8.53 43.61 8.37 43.68 8.13C43.99 7.10 44.56 6.76 45.12 6.76C45.67 6.76 46.31 7.04 46.31 8.16L46.31 8.75C45.96 9.11 44.60 9.46 43.50 9.81C42.49 10.12 42.20 10.82 42.20 11.48ZM43.61 11.28C43.61 10.63 43.92 10.29 44.70 10.00C45.26 9.79 46.00 9.52 46.31 9.32L46.31 11.30C46.31 12.43 45.44 12.73 44.90 12.73C44.03 12.73 43.61 12.11 43.61 11.28ZM52.47 13.30L56.81 13.30C58.94 13.30 60.31 12.53 60.31 10.58C60.31 8.93 59.14 8.20 57.78 8.02L57.78 7.99C59.09 7.73 59.86 6.92 59.86 5.84C59.86 5.07 59.56 4.49 59.00 4.12C58.45 3.75 57.64 3.61 56.52 3.61L52.47 3.61L52.47 4.02C53.70 4.10 53.73 4.13 53.73 4.91L53.73 12.00C53.73 12.78 53.70 12.81 52.47 12.89ZM55.12 11.73L55.12 8.33L56.13 8.33C57.86 8.33 58.81 9.20 58.81 10.68C58.81 12.36 57.67 12.81 56.46 12.81C55.34 12.81 55.12 12.60 55.12 11.73ZM55.12 7.84L55.12 4.80C55.12 4.20 55.16 4.10 56.25 4.10C57.27 4.10 58.39 4.48 58.39 5.92C58.39 7.29 57.51 7.84 56.06 7.84ZM61.54 11.48C61.54 12.53 62.24 13.47 63.56 13.47C64.37 13.47 65.20 12.92 65.65 12.63C65.84 13.15 66.07 13.47 66.56 13.47C67.07 13.47 67.68 13.31 68.21 13.05L68.12 12.71C67.93 12.75 67.62 12.78 67.41 12.73C67.16 12.67 66.92 12.40 66.92 11.52L66.92 8.13C66.92 7.32 66.74 6.27 64.62 6.27C63.04 6.27 61.80 7.10 61.80 7.87C61.80 8.32 62.31 8.53 62.58 8.53C62.87 8.53 62.96 8.37 63.03 8.13C63.34 7.10 63.91 6.76 64.47 6.76C65.02 6.76 65.66 7.04 65.66 8.16L65.66 8.75C65.31 9.11 63.95 9.46 62.85 9.81C61.84 10.12 61.54 10.82 61.54 11.48ZM62.96 11.28C62.96 10.63 63.27 10.29 64.05 10.00C64.61 9.79 65.35 9.52 65.66 9.32L65.66 11.30C65.66 12.43 64.79 12.73 64.25 12.73C63.38 12.73 62.96 12.11 62.96 11.28ZM68.87 9.94C68.87 12.28 70.01 13.47 72.11 13.47C73.09 13.47 74.41 12.95 74.80 11.45L74.40 11.26C73.96 12.24 73.40 12.74 72.38 12.74C70.71 12.74 70.32 11.00 70.32 9.69C70.32 7.60 71.15 6.76 72.11 6.76C72.76 6.76 73.16 7.22 73.44 7.98C73.53 8.20 73.61 8.34 73.88 8.34C74.16 8.34 74.70 8.16 74.70 7.63C74.70 6.99 73.78 6.27 72.27 6.27C69.72 6.27 68.87 8.08 68.87 9.94ZM75.81 11.48C75.81 12.53 76.51 13.47 77.83 13.47C78.64 13.47 79.46 12.92 79.91 12.63C80.11 13.15 80.33 13.47 80.82 13.47C81.34 13.47 81.94 13.31 82.47 13.05L82.39 12.71C82.19 12.75 81.89 12.78 81.68 12.73C81.42 12.67 81.19 12.40 81.19 11.52L81.19 8.13C81.19 7.32 81.00 6.27 78.89 6.27C77.31 6.27 76.06 7.10 76.06 7.87C76.06 8.32 76.58 8.53 76.85 8.53C77.14 8.53 77.22 8.37 77.29 8.13C77.60 7.10 78.18 6.76 78.74 6.76C79.28 6.76 79.93 7.04 79.93 8.16L79.93 8.75C79.58 9.11 78.22 9.46 77.11 9.81C76.10 10.12 75.81 10.82 75.81 11.48ZM77.22 11.28C77.22 10.63 77.53 10.29 78.32 10.00C78.88 9.79 79.62 9.52 79.93 9.32L79.93 11.30C79.93 12.43 79.06 12.73 78.51 12.73C77.64 12.73 77.22 12.11 77.22 11.28ZM82.73 13.30L86.14 13.30L86.14 12.89C85.15 12.82 85.09 12.80 85.09 12.08L85.09 3.00L84.99 2.91L82.80 3.26L82.80 3.61L83.33 3.67C83.69 3.71 83.78 3.78 83.78 4.31L83.78 12.08C83.78 12.80 83.73 12.82 82.73 12.89ZM87.04 11.48C87.04 12.53 87.74 13.47 89.05 13.47C89.87 13.47 90.69 12.92 91.14 12.63C91.34 13.15 91.56 13.47 92.05 13.47C92.57 13.47 93.17 13.31 93.70 13.05L93.62 12.71C93.42 12.75 93.11 12.78 92.90 12.73C92.65 12.67 92.41 12.40 92.41 11.52L92.41 8.13C92.41 7.32 92.23 6.27 90.12 6.27C88.54 6.27 87.29 7.10 87.29 7.87C87.29 8.32 87.81 8.53 88.07 8.53C88.37 8.53 88.45 8.37 88.52 8.13C88.83 7.10 89.40 6.76 89.96 6.76C90.51 6.76 91.15 7.04 91.15 8.16L91.15 8.75C90.80 9.11 89.45 9.46 88.34 9.81C87.33 10.12 87.04 10.82 87.04 11.48ZM88.45 11.28C88.45 10.63 88.76 10.29 89.54 10.00C90.10 9.79 90.85 9.52 91.15 9.32L91.15 11.30C91.15 12.43 90.29 12.73 89.74 12.73C88.87 12.73 88.45 12.11 88.45 11.28ZM94.12 13.30L97.82 13.30L97.82 12.89C96.57 12.82 96.49 12.80 96.49 12.08L96.49 8.81C96.49 7.73 96.96 7.36 97.29 7.36C97.51 7.36 97.75 7.45 98.15 7.67C98.25 7.73 98.36 7.74 98.43 7.74C98.77 7.74 99.08 7.39 99.08 6.96C99.08 6.65 98.88 6.27 98.34 6.27C97.83 6.27 97.41 6.58 96.49 7.39L96.32 6.27L94.19 6.62L94.19 6.97L94.72 7.04C95.09 7.10 95.17 7.17 95.17 7.67L95.17 12.08C95.17 12.80 95.10 12.82 94.12 12.89Z"></path></g><!----><!----><g data-v-423bf9ae="" id="1501b37a-741a-4997-b4e8-04700f059f97" fill="#000000" transform="matrix(5.917159562968884,0,0,5.917159562968884,-3.1361143568304897,110.5739650052325)"><path d="M10.00 13.22L9.53 13.17L5.75 3.91L5.04 3.91L1.25 13.17L0.80 13.22C0.62 13.23 0.53 13.33 0.53 13.50L0.53 13.82L0.98 13.82L1.27 13.82L1.53 13.82L1.62 13.82L2.94 13.82L2.94 13.50C2.94 13.31 2.83 13.23 2.62 13.22C2.60 13.22 2.58 13.20 2.53 13.20C2.49 13.20 2.44 13.19 2.34 13.19C2.24 13.19 2.11 13.19 1.97 13.17L2.95 10.75L3.02 10.57L7.76 10.57L7.83 10.75L8.81 13.17C8.67 13.19 8.55 13.19 8.46 13.19C8.36 13.19 8.29 13.20 8.25 13.20C8.20 13.20 8.18 13.22 8.16 13.22C7.95 13.23 7.84 13.31 7.84 13.50L7.84 13.82L9.16 13.82L9.25 13.82L9.52 13.82L9.80 13.82L10.26 13.82L10.26 13.50C10.26 13.33 10.18 13.23 10.00 13.22ZM5.19 5.22C5.22 5.14 5.26 5.04 5.29 4.94C5.32 4.84 5.36 4.75 5.39 4.63C5.42 4.75 5.46 4.84 5.49 4.94C5.52 5.04 5.56 5.12 5.59 5.21L7.55 10.04L3.25 10.04ZM36.39 3.92L36.19 3.92L28.90 3.92L28.69 3.92L28.59 3.92L28.59 5.96L28.94 5.96C29.13 5.96 29.22 5.85 29.23 5.63C29.23 5.53 29.26 5.17 29.29 4.52L32.19 4.52L32.19 13.26C32.02 13.26 31.88 13.27 31.74 13.27C31.60 13.27 31.49 13.29 31.42 13.29L31.29 13.29C31.11 13.30 31.01 13.38 31.01 13.54L31.01 13.82L32.19 13.82L32.90 13.82L34.09 13.82L34.09 13.54C34.09 13.38 33.99 13.30 33.81 13.29L33.67 13.29C33.60 13.29 33.50 13.27 33.36 13.27C33.22 13.27 33.07 13.26 32.90 13.26L32.90 4.52L35.78 4.52C35.83 5.24 35.84 5.60 35.84 5.63C35.85 5.85 35.95 5.96 36.15 5.96L36.48 5.96L36.48 3.92ZM53.07 13.22L52.61 13.17L48.83 3.91L48.12 3.91L44.32 13.17L43.88 13.22C43.69 13.23 43.61 13.33 43.61 13.50L43.61 13.82L44.06 13.82L44.35 13.82L44.60 13.82L44.70 13.82L46.02 13.82L46.02 13.50C46.02 13.31 45.91 13.23 45.70 13.22C45.68 13.22 45.65 13.20 45.61 13.20C45.57 13.20 45.51 13.19 45.42 13.19C45.32 13.19 45.19 13.19 45.05 13.17L46.03 10.75L46.10 10.57L50.83 10.57L50.90 10.75L51.88 13.17C51.74 13.19 51.63 13.19 51.53 13.19C51.44 13.19 51.37 13.20 51.32 13.20C51.28 13.20 51.25 13.22 51.24 13.22C51.03 13.23 50.92 13.31 50.92 13.50L50.92 13.82L52.23 13.82L52.33 13.82L52.60 13.82L52.88 13.82L53.34 13.82L53.34 13.50C53.34 13.33 53.26 13.23 53.07 13.22ZM48.27 5.22C48.30 5.14 48.34 5.04 48.37 4.94C48.40 4.84 48.44 4.75 48.47 4.63C48.50 4.75 48.54 4.84 48.57 4.94C48.59 5.04 48.64 5.12 48.66 5.21L50.62 10.04L46.33 10.04ZM67.30 9.91C67.16 9.65 66.96 9.39 66.72 9.21C66.49 9.03 66.23 8.88 65.94 8.75C65.65 8.62 65.32 8.51 65.02 8.41C64.71 8.32 64.40 8.20 64.11 8.11C63.81 7.99 63.55 7.87 63.31 7.71C63.07 7.56 62.89 7.38 62.75 7.15C62.61 6.93 62.52 6.65 62.52 6.31C62.52 6.06 62.58 5.82 62.68 5.59C62.78 5.35 62.92 5.15 63.10 4.97C63.28 4.79 63.50 4.65 63.78 4.55C64.06 4.45 64.37 4.40 64.74 4.40C65.41 4.40 66.02 4.51 66.58 4.75C66.63 5.54 66.65 5.99 66.65 6.06C66.67 6.29 66.75 6.41 66.95 6.41L67.28 6.41L67.28 4.38C66.40 4.00 65.56 3.81 64.74 3.81C64.27 3.81 63.87 3.88 63.50 4.02C63.14 4.16 62.85 4.34 62.61 4.58C62.37 4.82 62.17 5.08 62.05 5.39C61.92 5.70 61.87 6.02 61.87 6.36C61.87 6.78 61.94 7.14 62.08 7.42C62.22 7.70 62.41 7.92 62.65 8.12C62.89 8.32 63.14 8.46 63.43 8.58C63.73 8.71 64.05 8.82 64.36 8.92C64.67 9.02 64.96 9.11 65.27 9.21C65.56 9.31 65.83 9.45 66.07 9.60C66.30 9.76 66.49 9.94 66.63 10.16C66.77 10.39 66.84 10.68 66.84 11.03C66.84 11.35 66.78 11.66 66.67 11.94C66.56 12.22 66.40 12.46 66.19 12.67C65.98 12.88 65.72 13.05 65.41 13.16C65.10 13.29 64.75 13.33 64.36 13.33C63.57 13.33 62.92 13.20 62.38 12.95C62.37 12.75 62.37 12.54 62.36 12.32C62.34 12.10 62.34 11.91 62.33 11.76C62.31 11.61 62.31 11.52 62.31 11.51C62.30 11.28 62.20 11.17 62.01 11.17L61.67 11.17L61.67 13.02L61.67 13.20L61.67 13.38C62.52 13.75 63.41 13.93 64.33 13.93C64.83 13.93 65.28 13.85 65.67 13.69C66.07 13.54 66.40 13.31 66.67 13.05C66.93 12.78 67.16 12.46 67.30 12.10C67.44 11.73 67.51 11.34 67.51 10.92C67.51 10.51 67.44 10.18 67.30 9.91ZM83.29 3.92L83.09 3.92L75.80 3.92L75.59 3.92L75.49 3.92L75.49 5.96L75.84 5.96C76.03 5.96 76.12 5.85 76.13 5.63C76.13 5.53 76.16 5.17 76.19 4.52L79.09 4.52L79.09 13.26C78.92 13.26 78.78 13.27 78.64 13.27C78.50 13.27 78.39 13.29 78.32 13.29L78.19 13.29C78.01 13.30 77.91 13.38 77.91 13.54L77.91 13.82L79.09 13.82L79.80 13.82L80.99 13.82L80.99 13.54C80.99 13.38 80.89 13.30 80.71 13.29L80.57 13.29C80.50 13.29 80.40 13.27 80.26 13.27C80.12 13.27 79.97 13.26 79.80 13.26L79.80 4.52L82.68 4.52C82.73 5.24 82.74 5.60 82.74 5.63C82.75 5.85 82.85 5.96 83.05 5.96L83.38 5.96L83.38 3.92ZM92.68 3.92L91.49 3.92L91.49 4.19C91.49 4.34 91.59 4.42 91.77 4.44L91.91 4.44C91.98 4.44 92.08 4.45 92.22 4.45C92.36 4.45 92.51 4.47 92.68 4.47L92.68 13.26C92.51 13.26 92.36 13.27 92.22 13.27C92.08 13.27 91.98 13.29 91.91 13.29L91.77 13.29C91.59 13.30 91.50 13.38 91.50 13.54L91.50 13.82L92.68 13.82L98.62 13.82L98.62 13.22L98.62 11.76L98.27 11.76C98.07 11.76 97.99 11.89 97.97 12.11C97.97 12.14 97.96 12.19 97.96 12.29C97.96 12.39 97.96 12.53 97.94 12.74C97.93 12.95 97.92 13.09 97.92 13.22L93.39 13.22L93.39 9.09L97.34 9.09L97.34 8.51L93.39 8.51L93.39 4.51L97.92 4.51C97.94 5.12 97.97 5.50 97.97 5.63C97.99 5.85 98.07 5.96 98.27 5.96L98.62 5.96L98.62 4.51L98.62 3.92ZM126.84 8.86C126.84 8.11 126.71 7.41 126.49 6.79C126.27 6.17 125.94 5.64 125.52 5.19C125.10 4.75 124.61 4.40 124.04 4.16C123.47 3.92 122.81 3.79 122.11 3.79C121.41 3.79 120.78 3.92 120.20 4.16C119.63 4.40 119.13 4.75 118.71 5.19C118.29 5.64 117.96 6.17 117.74 6.79C117.52 7.41 117.39 8.11 117.39 8.86C117.39 9.63 117.52 10.33 117.74 10.95C117.96 11.56 118.29 12.10 118.71 12.54C119.13 12.99 119.63 13.33 120.20 13.57C120.78 13.80 121.41 13.93 122.11 13.93C122.81 13.93 123.47 13.80 124.04 13.57C124.61 13.33 125.10 12.99 125.52 12.54C125.94 12.10 126.27 11.56 126.49 10.95C126.71 10.33 126.84 9.63 126.84 8.86ZM126.08 8.86C126.08 9.56 126.00 10.18 125.80 10.72C125.61 11.27 125.34 11.75 124.99 12.12C124.64 12.50 124.22 12.81 123.73 13.01C123.24 13.20 122.71 13.30 122.11 13.30C121.52 13.30 120.99 13.20 120.50 13.01C120.01 12.81 119.59 12.50 119.24 12.12C118.89 11.75 118.61 11.27 118.41 10.72C118.22 10.18 118.13 9.56 118.13 8.86C118.13 8.18 118.22 7.55 118.41 7.00C118.61 6.45 118.89 5.98 119.24 5.60C119.59 5.22 120.01 4.91 120.50 4.72C120.99 4.52 121.52 4.41 122.11 4.41C122.71 4.41 123.24 4.52 123.73 4.72C124.22 4.91 124.64 5.22 124.99 5.60C125.34 5.98 125.61 6.45 125.80 7.00C126.00 7.55 126.08 8.18 126.08 8.86ZM142.24 3.92L141.89 3.92L136.30 3.92L135.11 3.92L135.11 4.19C135.11 4.34 135.21 4.42 135.39 4.44L135.53 4.44C135.60 4.44 135.70 4.45 135.84 4.45C135.98 4.45 136.14 4.47 136.30 4.47L136.30 13.26C136.14 13.26 135.98 13.27 135.84 13.27C135.70 13.27 135.60 13.29 135.53 13.29L135.39 13.29C135.21 13.30 135.11 13.38 135.11 13.54L135.11 13.82L136.30 13.82L137.02 13.82L138.19 13.82L138.19 13.54C138.19 13.38 138.11 13.30 137.93 13.29L137.79 13.29C137.72 13.29 137.62 13.27 137.48 13.27C137.34 13.27 137.19 13.26 137.02 13.26L137.02 9.27L140.71 9.27L140.71 8.67L137.02 8.67L137.02 4.51L141.62 4.51C141.65 5.18 141.68 5.56 141.68 5.63C141.69 5.85 141.79 5.96 141.99 5.96L142.32 5.96L142.32 3.92ZM170.55 4.44C170.73 4.42 170.83 4.34 170.83 4.19L170.83 3.92L169.65 3.92L168.92 3.92L167.75 3.92L167.75 4.19C167.75 4.34 167.85 4.42 168.03 4.44L168.15 4.44C168.22 4.44 168.34 4.45 168.48 4.45C168.62 4.45 168.76 4.47 168.92 4.47L168.92 8.53L162.72 8.53L162.72 4.47C162.89 4.47 163.04 4.45 163.18 4.45C163.32 4.45 163.42 4.44 163.49 4.44L163.63 4.44C163.81 4.42 163.90 4.34 163.90 4.19L163.90 3.92L162.72 3.92L162.01 3.92L160.82 3.92L160.82 4.19C160.82 4.34 160.92 4.42 161.10 4.44L161.24 4.44C161.31 4.44 161.41 4.45 161.55 4.45C161.69 4.45 161.84 4.47 162.01 4.47L162.01 13.26C161.84 13.26 161.69 13.27 161.55 13.27C161.41 13.27 161.31 13.29 161.24 13.29L161.10 13.29C160.92 13.30 160.82 13.38 160.82 13.54L160.82 13.82L162.01 13.82L162.72 13.82L163.90 13.82L163.90 13.54C163.90 13.38 163.81 13.30 163.63 13.29L163.49 13.29C163.42 13.29 163.32 13.27 163.18 13.27C163.04 13.27 162.89 13.26 162.72 13.26L162.72 9.07L168.92 9.07L168.92 13.26C168.76 13.26 168.62 13.27 168.48 13.27C168.34 13.27 168.22 13.29 168.15 13.29L168.03 13.29C167.85 13.30 167.75 13.38 167.75 13.54L167.75 13.82L168.92 13.82L169.65 13.82L170.83 13.82L170.83 13.54C170.83 13.38 170.73 13.30 170.55 13.29L170.42 13.29C170.35 13.29 170.24 13.27 170.10 13.27C169.96 13.27 169.82 13.26 169.65 13.26L169.65 4.47C169.82 4.47 169.96 4.45 170.10 4.45C170.24 4.45 170.35 4.44 170.42 4.44ZM188.44 8.86C188.44 8.11 188.31 7.41 188.09 6.79C187.87 6.17 187.54 5.64 187.12 5.19C186.70 4.75 186.21 4.40 185.64 4.16C185.07 3.92 184.41 3.79 183.71 3.79C183.01 3.79 182.38 3.92 181.80 4.16C181.23 4.40 180.73 4.75 180.31 5.19C179.89 5.64 179.56 6.17 179.34 6.79C179.12 7.41 178.99 8.11 178.99 8.86C178.99 9.63 179.12 10.33 179.34 10.95C179.56 11.56 179.89 12.10 180.31 12.54C180.73 12.99 181.23 13.33 181.80 13.57C182.38 13.80 183.01 13.93 183.71 13.93C184.41 13.93 185.07 13.80 185.64 13.57C186.21 13.33 186.70 12.99 187.12 12.54C187.54 12.10 187.87 11.56 188.09 10.95C188.31 10.33 188.44 9.63 188.44 8.86ZM187.68 8.86C187.68 9.56 187.60 10.18 187.40 10.72C187.21 11.27 186.94 11.75 186.59 12.12C186.24 12.50 185.82 12.81 185.33 13.01C184.84 13.20 184.31 13.30 183.71 13.30C183.12 13.30 182.59 13.20 182.10 13.01C181.61 12.81 181.19 12.50 180.84 12.12C180.49 11.75 180.21 11.27 180.01 10.72C179.82 10.18 179.73 9.56 179.73 8.86C179.73 8.18 179.82 7.55 180.01 7.00C180.21 6.45 180.49 5.98 180.84 5.60C181.19 5.22 181.61 4.91 182.10 4.72C182.59 4.52 183.12 4.41 183.71 4.41C184.31 4.41 184.84 4.52 185.33 4.72C185.82 4.91 186.24 5.22 186.59 5.60C186.94 5.98 187.21 6.45 187.40 7.00C187.60 7.55 187.68 8.18 187.68 8.86ZM208.31 4.44C208.49 4.42 208.59 4.34 208.59 4.19L208.59 3.92L207.41 3.92L206.91 3.92C206.84 3.92 206.79 3.92 206.75 3.93C206.71 3.95 206.68 3.99 206.64 4.05L202.75 10.92C202.71 10.99 202.68 11.06 202.65 11.13C202.62 11.20 202.59 11.28 202.57 11.35C202.51 11.20 202.45 11.06 202.38 10.93L198.38 4.05C198.34 3.99 198.31 3.95 198.27 3.93C198.23 3.92 198.18 3.92 198.11 3.92L197.62 3.92L196.43 3.92L196.43 4.19C196.43 4.34 196.53 4.42 196.71 4.44L196.85 4.44C196.92 4.44 197.02 4.45 197.16 4.45C197.30 4.45 197.46 4.47 197.62 4.47L197.62 13.26C197.46 13.26 197.30 13.27 197.16 13.27C197.02 13.27 196.92 13.29 196.85 13.29L196.71 13.29C196.53 13.30 196.43 13.38 196.43 13.54L196.43 13.82L197.62 13.82L198.24 13.82L199.46 13.82L199.46 13.54C199.46 13.38 199.36 13.30 199.18 13.29L199.04 13.29C198.97 13.29 198.86 13.27 198.72 13.27C198.58 13.27 198.41 13.26 198.24 13.26L198.24 5.38C198.24 5.25 198.24 5.12 198.23 4.98L202.23 11.91C202.30 12.04 202.40 12.10 202.51 12.10L202.62 12.10C202.75 12.10 202.83 12.04 202.90 11.91L206.79 4.98C206.78 5.12 206.78 5.25 206.78 5.38L206.78 13.26C206.61 13.26 206.44 13.27 206.30 13.27C206.16 13.27 206.05 13.29 205.98 13.29L205.84 13.29C205.66 13.30 205.56 13.38 205.56 13.54L205.56 13.82L206.78 13.82L207.41 13.82L208.59 13.82L208.59 13.54C208.59 13.38 208.49 13.30 208.31 13.29L208.18 13.29C208.11 13.29 208.00 13.27 207.86 13.27C207.72 13.27 207.58 13.26 207.41 13.26L207.41 4.47C207.58 4.47 207.72 4.45 207.86 4.45C208.00 4.45 208.11 4.44 208.18 4.44ZM218.12 3.92L216.93 3.92L216.93 4.19C216.93 4.34 217.03 4.42 217.21 4.44L217.35 4.44C217.42 4.44 217.52 4.45 217.66 4.45C217.80 4.45 217.95 4.47 218.12 4.47L218.12 13.26C217.95 13.26 217.80 13.27 217.66 13.27C217.52 13.27 217.42 13.29 217.35 13.29L217.21 13.29C217.03 13.30 216.94 13.38 216.94 13.54L216.94 13.82L218.12 13.82L224.06 13.82L224.06 13.22L224.06 11.76L223.71 11.76C223.51 11.76 223.43 11.89 223.41 12.11C223.41 12.14 223.40 12.19 223.40 12.29C223.40 12.39 223.40 12.53 223.38 12.74C223.37 12.95 223.36 13.09 223.36 13.22L218.83 13.22L218.83 9.09L222.78 9.09L222.78 8.51L218.83 8.51L218.83 4.51L223.36 4.51C223.38 5.12 223.41 5.50 223.41 5.63C223.43 5.85 223.51 5.96 223.71 5.96L224.06 5.96L224.06 4.51L224.06 3.92Z"></path></g></svg>