<svg data-v-423bf9ae="" xmlns="http://www.w3.org/2000/svg" viewBox="0 0 564.1619332490224 60" class="font"><!----><!----><defs data-v-423bf9ae=""><linearGradient data-v-423bf9ae="" gradientTransform="rotate(25)" id="e7646f5a-aba1-4808-84aa-de719f946008" x1="0%" y1="0%" x2="100%" y2="0%"><stop data-v-423bf9ae="" offset="0%" style="stop-color: rgb(255, 255, 255); stop-opacity: 1;"></stop><stop data-v-423bf9ae="" offset="100%" style="stop-color: rgb(255, 255, 255); stop-opacity: 1;"></stop></linearGradient></defs><g data-v-423bf9ae="" id="be5f22cf-5c7b-44e2-b866-c73c0d75e969" fill="url(#e7646f5a-aba1-4808-84aa-de719f946008)" transform="matrix(6.7491560948100275,0,0,6.7491560948100275,-1.0798721921330525,-30.303708844100626)"><path d="M4.21 9.04L4.21 9.04L2.69 9.04L2.69 12.52L4.19 12.52Q5.03 12.52 5.51 12.02Q6.00 11.51 6.00 10.80L6.00 10.80Q6.00 10.47 5.88 10.17Q5.77 9.86 5.55 9.60Q5.34 9.35 4.99 9.19Q4.64 9.04 4.21 9.04ZM5.22 8.52L5.22 8.52L5.22 8.58Q5.72 8.61 6.14 8.79Q6.55 8.98 6.81 9.27Q7.06 9.55 7.20 9.89Q7.33 10.23 7.33 10.58L7.33 10.58Q7.33 10.98 7.22 11.34Q7.11 11.70 6.84 12.04Q6.58 12.39 6.17 12.63Q5.76 12.87 5.13 13.02Q4.49 13.17 3.69 13.17L3.69 13.17L0.16 13.17L0.23 12.67L1.38 12.35L1.38 5.62L0.21 5.42L0.27 4.89Q2.41 4.58 3.64 4.58L3.64 4.58Q4.40 4.58 4.99 4.74Q5.58 4.91 5.93 5.19Q6.28 5.47 6.46 5.82Q6.63 6.17 6.63 6.57L6.63 6.57Q6.63 6.85 6.56 7.12Q6.48 7.39 6.33 7.66Q6.17 7.93 5.89 8.16Q5.61 8.38 5.22 8.52ZM2.69 5.21L2.69 5.21L2.69 8.47L4.45 8.47Q5.35 8.09 5.34 6.95L5.34 6.95Q5.34 6.69 5.28 6.44Q5.22 6.20 5.07 5.96Q4.92 5.72 4.69 5.55Q4.46 5.38 4.08 5.27Q3.71 5.17 3.23 5.17L3.23 5.17Q2.93 5.16 2.69 5.21ZM11.31 11.89L11.31 10.25Q10.25 10.45 9.80 10.82Q9.35 11.18 9.35 11.70L9.35 11.70Q9.35 12.00 9.56 12.25Q9.77 12.50 10.12 12.50L10.12 12.50Q10.45 12.50 10.78 12.30Q11.11 12.11 11.31 11.89L11.31 11.89ZM12.50 13.30L12.50 13.30Q11.96 13.30 11.70 13.02Q11.44 12.74 11.44 12.38L11.44 12.38L11.44 12.28L11.36 12.28Q11.28 12.43 11.15 12.60Q11.01 12.76 10.79 12.94Q10.57 13.12 10.23 13.23Q9.89 13.34 9.50 13.34L9.50 13.34Q8.93 13.34 8.54 12.98Q8.16 12.63 8.16 12.02L8.16 12.02Q8.16 11.63 8.34 11.28Q8.52 10.92 8.89 10.62Q9.26 10.32 9.88 10.12Q10.50 9.91 11.31 9.86L11.31 9.86L11.31 9.48Q11.31 9.11 11.25 8.80Q11.20 8.50 11.06 8.23Q10.93 7.96 10.69 7.82Q10.45 7.68 10.10 7.68L10.10 7.68Q9.88 7.68 9.75 7.76Q9.61 7.84 9.54 8.03Q9.47 8.21 9.43 8.40Q9.40 8.60 9.37 8.91L9.37 8.91Q9.35 9.06 9.34 9.13L9.34 9.13Q9.19 9.13 9.10 9.12Q9.00 9.11 8.85 9.07Q8.71 9.04 8.62 8.97Q8.52 8.89 8.46 8.75Q8.39 8.61 8.39 8.42L8.39 8.42Q8.39 8.07 8.78 7.73Q9.17 7.39 9.71 7.20L9.71 7.20Q10.25 7.01 10.73 7.01L10.73 7.01Q11.63 7.01 12.02 7.52Q12.42 8.03 12.42 9.12L12.42 9.12L12.42 11.61Q12.42 12.09 12.56 12.26Q12.71 12.44 13.18 12.52L13.18 12.52L13.51 12.58L13.44 13.16Q13.33 13.17 13.16 13.21Q12.99 13.25 12.83 13.28Q12.68 13.30 12.50 13.30ZM16.11 4.66L16.11 12.38L17.20 12.62L17.12 13.17L13.85 13.17L13.92 12.63L14.97 12.38L14.97 5.53L13.89 5.17L13.97 4.65L15.94 4.49L16.11 4.66ZM22.09 12.33L22.09 12.28L22.00 12.28Q21.29 13.33 20.04 13.33L20.04 13.33Q18.52 13.33 18.52 11.35L18.52 11.35L18.52 8.20L17.58 7.82L17.67 7.28L19.51 7.14L19.67 7.30L19.67 11.01Q19.67 12.39 20.73 12.39L20.73 12.39Q21.50 12.39 22.00 11.86L22.00 11.86L22.00 8.23L20.91 7.94L20.98 7.33L22.99 7.14L23.14 7.30L23.14 11.70Q23.14 11.95 23.18 12.11Q23.23 12.27 23.34 12.36Q23.46 12.45 23.56 12.49Q23.67 12.52 23.88 12.56L23.88 12.56L24.19 12.63L24.13 13.21Q23.61 13.33 23.09 13.33L23.09 13.33Q22.60 13.33 22.34 13.05Q22.09 12.78 22.09 12.33L22.09 12.33ZM30.54 8.18L30.54 8.18L30.62 8.18Q30.98 7.71 31.51 7.41Q32.04 7.10 32.65 7.10L32.65 7.10Q34.26 7.10 34.26 9.01L34.26 9.01L34.26 12.38L35.21 12.62L35.12 13.16L32.20 13.16L32.26 12.67L33.11 12.39L33.11 9.17Q33.11 8.66 32.80 8.32Q32.50 7.98 31.96 7.98L31.96 7.98Q31.55 7.98 31.25 8.16Q30.95 8.34 30.65 8.66L30.65 8.66L30.65 12.39L31.67 12.63L31.60 13.17L28.57 13.17L28.65 12.67L29.54 12.39L29.54 9.17Q29.54 8.64 29.21 8.31Q28.88 7.98 28.38 7.98L28.38 7.98Q27.54 7.98 27.02 8.57L27.02 8.57L27.02 12.39L28 12.63L27.93 13.17L24.77 13.17L24.84 12.67L25.87 12.39L25.87 8.25L24.77 7.91L24.84 7.39L26.92 7.11L27.04 7.25L26.92 8.11L26.99 8.11Q27.35 7.66 27.89 7.35Q28.44 7.04 29.04 7.04L29.04 7.04Q29.56 7.04 29.98 7.31Q30.39 7.59 30.54 8.18ZM38.99 11.89L38.99 10.25Q37.93 10.45 37.48 10.82Q37.04 11.18 37.04 11.70L37.04 11.70Q37.04 12.00 37.25 12.25Q37.45 12.50 37.81 12.50L37.81 12.50Q38.13 12.50 38.46 12.30Q38.79 12.11 38.99 11.89L38.99 11.89ZM40.19 13.30L40.19 13.30Q39.65 13.30 39.39 13.02Q39.13 12.74 39.13 12.38L39.13 12.38L39.13 12.28L39.05 12.28Q38.96 12.43 38.83 12.60Q38.70 12.76 38.48 12.94Q38.25 13.12 37.92 13.23Q37.58 13.34 37.18 13.34L37.18 13.34Q36.61 13.34 36.23 12.98Q35.84 12.63 35.84 12.02L35.84 12.02Q35.84 11.63 36.02 11.28Q36.20 10.92 36.57 10.62Q36.94 10.32 37.56 10.12Q38.19 9.91 38.99 9.86L38.99 9.86L38.99 9.48Q38.99 9.11 38.94 8.80Q38.88 8.50 38.75 8.23Q38.62 7.96 38.37 7.82Q38.13 7.68 37.78 7.68L37.78 7.68Q37.57 7.68 37.43 7.76Q37.30 7.84 37.23 8.03Q37.15 8.21 37.12 8.40Q37.08 8.60 37.05 8.91L37.05 8.91Q37.04 9.06 37.02 9.13L37.02 9.13Q36.88 9.13 36.78 9.12Q36.68 9.11 36.54 9.07Q36.39 9.04 36.30 8.97Q36.21 8.89 36.14 8.75Q36.07 8.61 36.07 8.42L36.07 8.42Q36.07 8.07 36.46 7.73Q36.85 7.39 37.40 7.20L37.40 7.20Q37.93 7.01 38.41 7.01L38.41 7.01Q39.31 7.01 39.71 7.52Q40.11 8.03 40.11 9.12L40.11 9.12L40.11 11.61Q40.11 12.09 40.25 12.26Q40.39 12.44 40.87 12.52L40.87 12.52L41.20 12.58L41.13 13.16Q41.02 13.17 40.84 13.21Q40.67 13.25 40.52 13.28Q40.37 13.30 40.19 13.30ZM48.45 9.04L48.45 9.04L46.93 9.04L46.93 12.52L48.43 12.52Q49.27 12.52 49.76 12.02Q50.24 11.51 50.24 10.80L50.24 10.80Q50.24 10.47 50.12 10.17Q50.01 9.86 49.80 9.60Q49.58 9.35 49.23 9.19Q48.88 9.04 48.45 9.04ZM49.46 8.52L49.46 8.52L49.46 8.58Q49.96 8.61 50.38 8.79Q50.79 8.98 51.05 9.27Q51.30 9.55 51.44 9.89Q51.58 10.23 51.58 10.58L51.58 10.58Q51.58 10.98 51.46 11.34Q51.35 11.70 51.08 12.04Q50.82 12.39 50.41 12.63Q50.00 12.87 49.37 13.02Q48.73 13.17 47.93 13.17L47.93 13.17L44.40 13.17L44.47 12.67L45.62 12.35L45.62 5.62L44.45 5.42L44.51 4.89Q46.65 4.58 47.88 4.58L47.88 4.58Q48.64 4.58 49.24 4.74Q49.83 4.91 50.18 5.19Q50.52 5.47 50.70 5.82Q50.87 6.17 50.87 6.57L50.87 6.57Q50.87 6.85 50.80 7.12Q50.72 7.39 50.57 7.66Q50.42 7.93 50.13 8.16Q49.85 8.38 49.46 8.52ZM46.93 5.21L46.93 5.21L46.93 8.47L48.69 8.47Q49.59 8.09 49.58 6.95L49.58 6.95Q49.58 6.69 49.52 6.44Q49.46 6.20 49.31 5.96Q49.16 5.72 48.93 5.55Q48.70 5.38 48.32 5.27Q47.95 5.17 47.47 5.17L47.47 5.17Q47.17 5.16 46.93 5.21ZM55.55 11.89L55.55 10.25Q54.49 10.45 54.04 10.82Q53.59 11.18 53.59 11.70L53.59 11.70Q53.59 12.00 53.80 12.25Q54.01 12.50 54.37 12.50L54.37 12.50Q54.69 12.50 55.02 12.30Q55.35 12.11 55.55 11.89L55.55 11.89ZM56.75 13.30L56.75 13.30Q56.21 13.30 55.95 13.02Q55.69 12.74 55.69 12.38L55.69 12.38L55.69 12.28L55.60 12.28Q55.52 12.43 55.39 12.60Q55.25 12.76 55.03 12.94Q54.81 13.12 54.47 13.23Q54.13 13.34 53.74 13.34L53.74 13.34Q53.17 13.34 52.78 12.98Q52.40 12.63 52.40 12.02L52.40 12.02Q52.40 11.63 52.58 11.28Q52.76 10.92 53.13 10.62Q53.50 10.32 54.12 10.12Q54.74 9.91 55.55 9.86L55.55 9.86L55.55 9.48Q55.55 9.11 55.49 8.80Q55.44 8.50 55.31 8.23Q55.17 7.96 54.93 7.82Q54.69 7.68 54.34 7.68L54.34 7.68Q54.13 7.68 53.99 7.76Q53.85 7.84 53.78 8.03Q53.71 8.21 53.68 8.40Q53.64 8.60 53.61 8.91L53.61 8.91Q53.59 9.06 53.58 9.13L53.58 9.13Q53.44 9.13 53.34 9.12Q53.24 9.11 53.09 9.07Q52.95 9.04 52.86 8.97Q52.77 8.89 52.70 8.75Q52.63 8.61 52.63 8.42L52.63 8.42Q52.63 8.07 53.02 7.73Q53.41 7.39 53.96 7.20L53.96 7.20Q54.49 7.01 54.97 7.01L54.97 7.01Q55.87 7.01 56.27 7.52Q56.66 8.03 56.66 9.12L56.66 9.12L56.66 11.61Q56.66 12.09 56.81 12.26Q56.95 12.44 57.42 12.52L57.42 12.52L57.76 12.58L57.68 13.16Q57.57 13.17 57.40 13.21Q57.23 13.25 57.08 13.28Q56.92 13.30 56.75 13.30ZM61.58 12.56L61.58 12.56Q61.89 12.56 62.17 12.49Q62.45 12.41 62.60 12.34Q62.75 12.27 62.96 12.13L62.96 12.13L63.13 12.53Q62.85 12.87 62.25 13.13Q61.65 13.38 61.02 13.38L61.02 13.38Q60.22 13.38 59.59 12.95Q58.97 12.53 58.64 11.84Q58.32 11.15 58.32 10.33L58.32 10.33Q58.32 9.59 58.56 8.96Q58.80 8.33 59.21 7.91Q59.62 7.49 60.14 7.26Q60.66 7.02 61.22 7.02L61.22 7.02Q62.02 7.02 62.44 7.32Q62.86 7.63 62.86 8.07L62.86 8.07Q62.86 8.37 62.64 8.56Q62.42 8.75 62.00 8.78L62.00 8.78Q61.91 8.57 61.83 8.41Q61.74 8.24 61.60 8.06Q61.46 7.87 61.28 7.77Q61.11 7.66 60.89 7.66L60.89 7.66Q60.27 7.66 59.91 8.22Q59.55 8.78 59.55 9.71L59.55 9.71Q59.55 10.06 59.62 10.44Q59.69 10.82 59.85 11.20Q60.01 11.59 60.25 11.88Q60.48 12.18 60.82 12.37Q61.17 12.56 61.58 12.56ZM66.82 11.89L66.82 10.25Q65.76 10.45 65.31 10.82Q64.87 11.18 64.87 11.70L64.87 11.70Q64.87 12.00 65.07 12.25Q65.28 12.50 65.64 12.50L65.64 12.50Q65.96 12.50 66.29 12.30Q66.62 12.11 66.82 11.89L66.82 11.89ZM68.02 13.30L68.02 13.30Q67.48 13.30 67.22 13.02Q66.96 12.74 66.96 12.38L66.96 12.38L66.96 12.28L66.88 12.28Q66.79 12.43 66.66 12.60Q66.53 12.76 66.31 12.94Q66.08 13.12 65.74 13.23Q65.41 13.34 65.01 13.34L65.01 13.34Q64.44 13.34 64.06 12.98Q63.67 12.63 63.67 12.02L63.67 12.02Q63.67 11.63 63.85 11.28Q64.03 10.92 64.40 10.62Q64.77 10.32 65.39 10.12Q66.01 9.91 66.82 9.86L66.82 9.86L66.82 9.48Q66.82 9.11 66.77 8.80Q66.71 8.50 66.58 8.23Q66.45 7.96 66.20 7.82Q65.96 7.68 65.61 7.68L65.61 7.68Q65.40 7.68 65.26 7.76Q65.13 7.84 65.05 8.03Q64.98 8.21 64.95 8.40Q64.91 8.60 64.88 8.91L64.88 8.91Q64.87 9.06 64.85 9.13L64.85 9.13Q64.71 9.13 64.61 9.12Q64.51 9.11 64.37 9.07Q64.22 9.04 64.13 8.97Q64.04 8.89 63.97 8.75Q63.90 8.61 63.90 8.42L63.90 8.42Q63.90 8.07 64.29 7.73Q64.68 7.39 65.23 7.20L65.23 7.20Q65.76 7.01 66.24 7.01L66.24 7.01Q67.14 7.01 67.54 7.52Q67.94 8.03 67.94 9.12L67.94 9.12L67.94 11.61Q67.94 12.09 68.08 12.26Q68.22 12.44 68.69 12.52L68.69 12.52L69.03 12.58L68.95 13.16Q68.84 13.17 68.67 13.21Q68.50 13.25 68.35 13.28Q68.20 13.30 68.02 13.30ZM71.63 4.66L71.63 12.38L72.71 12.62L72.64 13.17L69.36 13.17L69.44 12.63L70.49 12.38L70.49 5.53L69.41 5.17L69.49 4.65L71.46 4.49L71.63 4.66ZM76.54 11.89L76.54 10.25Q75.48 10.45 75.03 10.82Q74.59 11.18 74.59 11.70L74.59 11.70Q74.59 12.00 74.80 12.25Q75.00 12.50 75.36 12.50L75.36 12.50Q75.68 12.50 76.01 12.30Q76.34 12.11 76.54 11.89L76.54 11.89ZM77.74 13.30L77.74 13.30Q77.20 13.30 76.94 13.02Q76.68 12.74 76.68 12.38L76.68 12.38L76.68 12.28L76.60 12.28Q76.51 12.43 76.38 12.60Q76.25 12.76 76.03 12.94Q75.80 13.12 75.47 13.23Q75.13 13.34 74.73 13.34L74.73 13.34Q74.16 13.34 73.78 12.98Q73.39 12.63 73.39 12.02L73.39 12.02Q73.39 11.63 73.57 11.28Q73.75 10.92 74.12 10.62Q74.49 10.32 75.11 10.12Q75.74 9.91 76.54 9.86L76.54 9.86L76.54 9.48Q76.54 9.11 76.49 8.80Q76.43 8.50 76.30 8.23Q76.17 7.96 75.92 7.82Q75.68 7.68 75.33 7.68L75.33 7.68Q75.12 7.68 74.98 7.76Q74.85 7.84 74.77 8.03Q74.70 8.21 74.67 8.40Q74.63 8.60 74.60 8.91L74.60 8.91Q74.59 9.06 74.57 9.13L74.57 9.13Q74.43 9.13 74.33 9.12Q74.23 9.11 74.09 9.07Q73.94 9.04 73.85 8.97Q73.76 8.89 73.69 8.75Q73.62 8.61 73.62 8.42L73.62 8.42Q73.62 8.07 74.01 7.73Q74.40 7.39 74.95 7.20L74.95 7.20Q75.48 7.01 75.96 7.01L75.96 7.01Q76.86 7.01 77.26 7.52Q77.66 8.03 77.66 9.12L77.66 9.12L77.66 11.61Q77.66 12.09 77.80 12.26Q77.94 12.44 78.42 12.52L78.42 12.52L78.75 12.58L78.67 13.16Q78.57 13.17 78.39 13.21Q78.22 13.25 78.07 13.28Q77.92 13.30 77.74 13.30ZM83.21 8.57L83.21 8.57Q82.82 8.23 82.46 8.23L82.46 8.23Q82.14 8.23 81.81 8.62Q81.47 9.02 81.37 9.72L81.37 9.72L81.37 12.35L82.95 12.58L82.88 13.17L79.11 13.17L79.19 12.67L80.23 12.39L80.23 8.20L79.12 7.87L79.21 7.35L81.16 7.09L81.30 7.25L81.19 8.83L81.32 8.83Q81.58 7.94 82.02 7.46Q82.47 6.98 82.93 6.98L82.93 6.98Q83.29 6.98 83.52 7.21Q83.75 7.44 83.75 7.75L83.75 7.75Q83.74 8.20 83.21 8.57Z"></path></g><!----><!----></svg>