<svg data-v-423bf9ae="" xmlns="http://www.w3.org/2000/svg" viewBox="0 0 695.785412314944 193" class="fontAboveSlogan"><!----><!----><!----><g data-v-423bf9ae="" id="c9762d81-3537-4d81-94b1-9fe2fdb25e88" fill="black" transform="matrix(12.210634184968676,0,0,12.210634184968676,183.56010735966416,-8.772321570476805)"><path d="M0.77 3.58L0.77 10.50L1.46 10.50L1.46 6.65C1.46 5.22 2.45 4.14 3.88 4.13C5.38 4.12 6.34 4.96 6.34 6.52L6.34 10.50L7.03 10.50L7.03 6.51C7.03 4.59 5.75 3.46 3.91 3.46C2.94 3.47 1.97 3.86 1.44 4.82L1.44 3.58ZM14.78 3.58L14.78 5.10C14.21 4.02 13.08 3.50 11.96 3.50C10.02 3.50 8.44 4.93 8.44 7.04C8.44 9.16 10.02 10.61 11.96 10.61C13.08 10.61 14.11 10.11 14.78 9.03L14.78 10.50L15.47 10.50C15.47 8.19 15.47 5.89 15.47 3.58ZM11.96 4.16C15.81 4.16 15.81 9.94 11.96 9.94C10.39 9.94 9.13 8.78 9.13 7.04C9.13 5.31 10.39 4.16 11.96 4.16ZM17.33 3.58L17.33 10.50L18.02 10.50L18.02 6.65C18.02 5.22 19.01 4.14 20.44 4.13C21.94 4.12 22.90 4.96 22.90 6.52L22.90 10.50L23.59 10.50L23.59 6.51C23.59 4.59 22.32 3.46 20.47 3.46C19.50 3.47 18.54 3.86 18.00 4.82L18.00 3.58ZM26.07 3.56L26.07 10.50L25.38 10.50L25.38 3.56ZM25.19 1.33C25.19 2.06 26.29 2.06 26.29 1.33C26.29 0.60 25.19 0.60 25.19 1.33Z"></path></g><!----><!----><g data-v-423bf9ae="" id="d99e4460-06d4-4c97-8019-d737223949a5" fill="black" transform="matrix(3.831417661853636,0,0,3.831417661853636,-4.44444638811575,119.36015381987369)"><path d="M6.19 9.52L6.19 9.52Q6.33 9.52 6.52 9.57Q6.71 9.62 6.86 9.70Q7.01 9.77 7.12 9.86Q7.22 9.94 7.22 10.01L7.22 10.01Q6.94 10.60 6.71 11.19Q6.47 11.79 6.30 12.33Q6.13 12.88 6.04 13.36Q5.95 13.83 5.95 14.18L5.95 14.18Q5.95 14.57 6.03 14.83Q6.12 15.09 6.31 15.20L6.31 15.20Q6.15 15.32 5.88 15.39Q5.61 15.46 5.40 15.46L5.40 15.46Q4.65 15.46 4.65 14.42L4.65 14.42Q4.65 13.62 5.18 12.24L5.18 12.24Q4.90 12.88 4.54 13.45Q4.17 14.01 3.79 14.45Q3.42 14.88 3.03 15.15Q2.65 15.43 2.32 15.48L2.32 15.48Q1.81 15.46 1.48 14.99Q1.16 14.52 1.16 13.79L1.16 13.79Q1.16 13.01 1.50 12.14Q1.83 11.27 2.36 10.53Q2.88 9.79 3.50 9.29Q4.12 8.79 4.69 8.76L4.69 8.76Q4.83 8.81 5.00 8.93Q5.18 9.06 5.34 9.23Q5.50 9.39 5.61 9.57Q5.73 9.74 5.74 9.87L5.74 9.87Q5.18 9.95 4.58 10.42Q3.99 10.88 3.51 11.53Q3.02 12.18 2.72 12.92Q2.41 13.66 2.41 14.31L2.41 14.31Q2.41 14.57 2.60 14.64L2.60 14.64Q3.01 14.56 3.54 13.95Q4.07 13.34 4.83 12.07L4.83 12.07Q4.97 11.82 5.15 11.51Q5.32 11.20 5.50 10.86Q5.68 10.53 5.86 10.18Q6.03 9.84 6.19 9.52ZM26.89 9.81L26.10 9.81Q26.03 9.73 25.97 9.46Q25.91 9.18 25.91 8.99L25.91 8.99Q26.28 9.02 26.61 9.04Q26.95 9.06 27.23 9.07L27.23 9.07Q27.44 8.65 27.68 8.24Q27.93 7.83 28.16 7.48Q28.39 7.14 28.59 6.90Q28.80 6.66 28.91 6.59L28.91 6.59Q29.05 6.59 29.27 6.64Q29.48 6.69 29.71 6.77Q29.93 6.85 30.11 6.93Q30.30 7.01 30.37 7.10L30.37 7.10Q29.95 7.63 29.64 8.09Q29.34 8.54 28.99 9.13L28.99 9.13Q29.27 9.13 29.56 9.11Q29.85 9.10 30.14 9.07L30.14 9.07Q30.21 9.14 30.25 9.25Q30.30 9.35 30.30 9.46L30.30 9.46Q29.61 9.72 28.63 9.74L28.63 9.74Q28.28 10.42 28.01 11.08Q27.73 11.75 27.54 12.36Q27.36 12.98 27.25 13.52Q27.15 14.07 27.15 14.50L27.15 14.50Q27.15 15.12 27.61 15.19L27.61 15.19Q28.03 15.13 28.41 14.98Q28.78 14.83 29.08 14.59L29.08 14.59Q29.16 14.71 29.18 14.80L29.18 14.80Q29.09 14.92 28.89 15.09Q28.69 15.26 28.45 15.42Q28.21 15.58 27.99 15.69Q27.76 15.81 27.65 15.82L27.65 15.82Q27.30 15.81 26.95 15.67Q26.60 15.53 26.31 15.32Q26.03 15.11 25.84 14.85Q25.66 14.59 25.66 14.34L25.66 14.34Q25.66 14 25.75 13.49Q25.84 12.98 26.01 12.38Q26.18 11.77 26.40 11.12Q26.63 10.46 26.89 9.81L26.89 9.81ZM42.03 9.52L42.03 9.52Q42.17 9.52 42.36 9.57Q42.55 9.62 42.70 9.70Q42.85 9.77 42.96 9.86Q43.06 9.94 43.06 10.01L43.06 10.01Q42.78 10.60 42.55 11.19Q42.31 11.79 42.14 12.33Q41.97 12.88 41.88 13.36Q41.79 13.83 41.79 14.18L41.79 14.18Q41.79 14.57 41.87 14.83Q41.96 15.09 42.15 15.20L42.15 15.20Q41.99 15.32 41.72 15.39Q41.45 15.46 41.24 15.46L41.24 15.46Q40.49 15.46 40.49 14.42L40.49 14.42Q40.49 13.62 41.02 12.24L41.02 12.24Q40.74 12.88 40.38 13.45Q40.01 14.01 39.63 14.45Q39.26 14.88 38.87 15.15Q38.49 15.43 38.16 15.48L38.16 15.48Q37.65 15.46 37.32 14.99Q37.00 14.52 37.00 13.79L37.00 13.79Q37.00 13.01 37.34 12.14Q37.67 11.27 38.20 10.53Q38.72 9.79 39.34 9.29Q39.96 8.79 40.53 8.76L40.53 8.76Q40.67 8.81 40.85 8.93Q41.02 9.06 41.18 9.23Q41.34 9.39 41.45 9.57Q41.57 9.74 41.58 9.87L41.58 9.87Q41.02 9.95 40.43 10.42Q39.83 10.88 39.35 11.53Q38.86 12.18 38.56 12.92Q38.25 13.66 38.25 14.31L38.25 14.31Q38.25 14.57 38.44 14.64L38.44 14.64Q38.85 14.56 39.38 13.95Q39.91 13.34 40.67 12.07L40.67 12.07Q40.81 11.82 40.99 11.51Q41.16 11.20 41.34 10.86Q41.52 10.53 41.70 10.18Q41.87 9.84 42.03 9.52ZM55.61 9.60L55.61 9.60Q55.59 9.87 55.52 10.16Q55.44 10.44 55.33 10.68Q55.22 10.91 55.09 11.06Q54.96 11.21 54.85 11.21L54.85 11.21Q54.70 11.20 54.67 11.00L54.67 11.00Q54.67 10.96 54.70 10.87Q54.74 10.78 54.78 10.67Q54.82 10.56 54.86 10.44Q54.89 10.33 54.89 10.25L54.89 10.25Q54.89 10.05 54.80 9.92Q54.71 9.79 54.56 9.79L54.56 9.79Q54.00 9.79 53.70 10.49Q53.41 11.19 53.41 12.54L53.41 12.54Q53.41 12.68 53.42 12.71L53.42 12.71Q53.72 12.70 53.95 12.69Q54.18 12.68 54.40 12.68L54.40 12.68Q54.42 12.71 54.42 12.80L54.42 12.80Q54.42 12.92 54.36 12.98L54.36 12.98Q54.04 13.05 53.85 13.10Q53.66 13.15 53.56 13.19Q53.47 13.23 53.45 13.28Q53.42 13.33 53.42 13.41L53.42 13.41Q53.42 13.52 53.43 13.64Q53.44 13.75 53.44 13.92L53.44 13.92Q53.44 15.09 52.80 15.81Q52.16 16.52 51.03 16.63L51.03 16.63Q50.83 16.62 50.62 16.52Q50.41 16.42 50.23 16.27Q50.04 16.11 49.90 15.93Q49.76 15.74 49.70 15.54L49.70 15.54Q49.70 15.01 49.92 14.53Q50.15 14.04 50.53 13.67Q50.92 13.30 51.44 13.07Q51.97 12.84 52.58 12.80L52.58 12.80Q52.58 12.45 52.51 12.11Q52.44 11.77 52.37 11.46Q52.29 11.14 52.22 10.84Q52.15 10.54 52.15 10.25L52.15 10.25Q52.15 9.87 52.30 9.50Q52.46 9.13 52.71 8.81Q52.96 8.50 53.30 8.27Q53.63 8.05 54.00 7.97L54.00 7.97Q54.15 8.01 54.41 8.21Q54.67 8.41 54.92 8.67Q55.17 8.92 55.37 9.18Q55.57 9.44 55.61 9.60ZM50.99 15.99L50.99 15.99Q51.32 15.85 51.63 15.58Q51.93 15.32 52.15 14.98Q52.37 14.64 52.51 14.27Q52.64 13.89 52.64 13.52L52.64 13.52Q52.36 13.57 52.02 13.78Q51.69 14 51.39 14.30Q51.10 14.60 50.90 14.92Q50.71 15.25 50.71 15.48L50.71 15.48Q50.71 15.79 50.99 15.99ZM64.25 9.81L63.45 9.81Q63.38 9.73 63.32 9.46Q63.27 9.18 63.27 8.99L63.27 8.99Q63.63 9.02 63.97 9.04Q64.30 9.06 64.58 9.07L64.58 9.07Q64.79 8.65 65.04 8.24Q65.28 7.83 65.51 7.48Q65.74 7.14 65.95 6.90Q66.15 6.66 66.26 6.59L66.26 6.59Q66.40 6.59 66.62 6.64Q66.84 6.69 67.06 6.77Q67.28 6.85 67.47 6.93Q67.65 7.01 67.72 7.10L67.72 7.10Q67.30 7.63 67.00 8.09Q66.70 8.54 66.35 9.13L66.35 9.13Q66.63 9.13 66.91 9.11Q67.20 9.10 67.49 9.07L67.49 9.07Q67.56 9.14 67.61 9.25Q67.65 9.35 67.65 9.46L67.65 9.46Q66.96 9.72 65.98 9.74L65.98 9.74Q65.63 10.42 65.36 11.08Q65.09 11.75 64.90 12.36Q64.71 12.98 64.60 13.52Q64.50 14.07 64.50 14.50L64.50 14.50Q64.50 15.12 64.96 15.19L64.96 15.19Q65.38 15.13 65.76 14.98Q66.14 14.83 66.43 14.59L66.43 14.59Q66.51 14.71 66.53 14.80L66.53 14.80Q66.44 14.92 66.24 15.09Q66.04 15.26 65.80 15.42Q65.56 15.58 65.34 15.69Q65.11 15.81 65.00 15.82L65.00 15.82Q64.65 15.81 64.30 15.67Q63.95 15.53 63.67 15.32Q63.38 15.11 63.20 14.85Q63.01 14.59 63.01 14.34L63.01 14.34Q63.01 14 63.11 13.49Q63.20 12.98 63.36 12.38Q63.53 11.77 63.76 11.12Q63.98 10.46 64.25 9.81L64.25 9.81ZM79.56 9.38L79.56 9.38Q79.51 10.25 79.25 10.87Q79.00 11.49 78.53 11.96Q78.06 12.43 77.39 12.81Q76.72 13.19 75.82 13.54L75.82 13.54Q75.82 13.62 75.82 13.71Q75.81 13.80 75.81 13.90L75.81 13.90Q75.81 14.08 75.84 14.28Q75.87 14.48 75.94 14.64Q76.01 14.81 76.13 14.92Q76.26 15.02 76.45 15.02L76.45 15.02Q76.83 15.02 77.20 14.85Q77.56 14.69 77.89 14.44Q78.22 14.20 78.51 13.91Q78.79 13.62 79.02 13.38L79.02 13.38Q79.16 13.51 79.25 13.62L79.25 13.62Q78.62 14.46 77.88 15.02Q77.13 15.57 76.45 15.72L76.45 15.72Q75.49 15.61 74.95 15.02Q74.41 14.42 74.41 13.58L74.41 13.58Q74.41 13.01 74.57 12.41Q74.73 11.82 75.02 11.26Q75.31 10.71 75.69 10.22Q76.08 9.73 76.52 9.37Q76.96 9.00 77.43 8.79Q77.90 8.58 78.36 8.58L78.36 8.58Q79.00 8.67 79.56 9.38ZM78.60 9.84L78.60 9.84Q78.22 9.90 77.81 10.15Q77.41 10.40 77.05 10.82Q76.69 11.24 76.40 11.80Q76.10 12.36 75.94 13.01L75.94 13.01Q77.06 12.45 77.80 11.63Q78.54 10.81 78.60 9.84ZM99.19 15.67L99.19 15.67Q98.39 15.58 97.92 14.97Q97.44 14.35 97.44 13.40L97.44 13.40Q97.44 12.84 97.61 12.24Q97.78 11.63 98.08 11.07Q98.39 10.50 98.81 10.00Q99.23 9.49 99.72 9.13L99.72 9.13Q100.49 8.55 101.16 8.55L101.16 8.55Q101.61 8.79 102.05 9.55L102.05 9.55Q102.12 9.55 102.17 9.54Q102.23 9.53 102.30 9.53L102.30 9.53Q103.04 9.53 103.04 10.85L103.04 10.85Q103.04 11.73 102.75 12.52Q102.47 13.31 101.96 13.96Q101.44 14.60 100.74 15.04Q100.03 15.48 99.19 15.67ZM99.90 11.26L99.90 11.26Q99.67 11.58 99.46 11.96Q99.25 12.33 99.09 12.72Q98.94 13.10 98.85 13.46Q98.77 13.82 98.77 14.10L98.77 14.10Q98.77 14.43 98.88 14.74Q98.99 15.05 99.13 15.09L99.13 15.09Q99.76 14.95 100.29 14.57Q100.81 14.18 101.20 13.61Q101.58 13.03 101.80 12.31Q102.02 11.58 102.02 10.75L102.02 10.75Q102.02 10.39 101.98 10.18Q101.93 9.97 101.84 9.81L101.84 9.81Q101.22 10.00 100.74 10.40Q100.25 10.81 99.90 11.26ZM111.27 19.22L111.27 19.22Q110.92 19.08 110.85 18.69L110.85 18.69Q110.80 18.31 110.38 18.07L110.38 18.07Q110.49 17.36 110.63 16.63Q110.77 15.90 110.99 14.97Q111.20 14.04 111.53 12.80Q111.86 11.56 112.36 9.80L112.36 9.80Q111.90 9.80 111.64 9.81Q111.37 9.83 111.12 9.87L111.12 9.87Q111.06 9.81 111.03 9.72Q110.99 9.62 110.99 9.53L110.99 9.53Q111.13 9.48 111.57 9.39Q112.00 9.30 112.52 9.23L112.52 9.23Q112.85 8.16 113.29 7.32Q113.72 6.47 114.23 5.87Q114.73 5.26 115.29 4.94Q115.85 4.62 116.42 4.62L116.42 4.62Q116.59 4.62 116.75 4.64Q116.90 4.66 116.98 4.66L116.98 4.66Q117.11 4.56 117.32 4.49Q117.53 4.41 117.68 4.41L117.68 4.41Q117.85 4.41 118.12 4.59L118.12 4.59Q118.01 4.79 117.88 5.12Q117.75 5.46 117.67 5.78L117.67 5.78Q117.32 6.82 116.93 7.13L116.93 7.13Q116.77 7.13 116.76 6.72L116.76 6.72Q116.75 6.43 116.68 6.15L116.68 6.15Q116.62 6.02 116.60 5.92Q116.58 5.82 116.58 5.67L116.58 5.67Q116.58 5.59 116.59 5.47Q116.61 5.35 116.65 5.07L116.65 5.07Q116.41 5.07 116.12 5.36Q115.84 5.66 115.52 6.20Q115.21 6.73 114.88 7.48Q114.56 8.22 114.27 9.11L114.27 9.11L115.44 9.07Q115.51 9.14 115.56 9.39Q115.61 9.63 115.63 9.90L115.63 9.90L114.09 9.81Q113.55 11.40 113.09 12.84Q112.63 14.28 112.27 15.50Q111.90 16.72 111.64 17.68Q111.38 18.63 111.27 19.22ZM132.61 14.94L132.61 14.94Q132.61 14.45 132.71 13.78Q132.80 13.12 132.99 12.36Q133.18 11.61 133.44 10.78Q133.70 9.95 134.02 9.13L134.02 9.13Q134.30 8.39 134.67 7.63Q135.04 6.87 135.48 6.15Q135.91 5.42 136.38 4.76Q136.85 4.10 137.33 3.56L137.33 3.56Q137.55 3.56 137.81 3.61Q138.07 3.67 138.31 3.76Q138.56 3.85 138.76 3.98Q138.96 4.10 139.09 4.23L139.09 4.23Q138.04 5.31 137.20 6.40Q136.36 7.50 135.87 8.47L135.87 8.47Q135.60 9.00 135.39 9.46Q135.17 9.93 134.99 10.38Q134.81 10.84 134.66 11.29Q134.51 11.75 134.39 12.25L134.39 12.25Q137.07 8.82 138.38 8.82L138.38 8.82Q138.74 8.82 139.16 9.06Q139.58 9.30 139.90 9.70L139.90 9.70Q139.47 10.18 139.01 10.85Q138.54 11.52 138.16 12.20Q137.77 12.88 137.53 13.46Q137.28 14.04 137.28 14.32L137.28 14.32Q137.28 14.46 137.33 14.51Q137.37 14.56 137.51 14.56L137.51 14.56Q137.72 14.56 137.84 14.50Q137.97 14.45 138.00 14.45L138.00 14.45Q138.07 14.56 138.08 14.60Q138.10 14.64 138.10 14.67L138.10 14.67Q138.10 14.73 137.93 14.83Q137.76 14.94 137.53 15.04Q137.30 15.15 137.07 15.23Q136.85 15.32 136.74 15.32L136.74 15.32Q136.60 15.32 136.46 15.24Q136.32 15.16 136.21 15.04Q136.11 14.91 136.05 14.76Q135.98 14.60 135.98 14.43L135.98 14.43Q135.98 14.22 136.10 13.81Q136.22 13.40 136.43 12.85Q136.64 12.29 136.93 11.63Q137.23 10.98 137.56 10.29L137.56 10.29Q137.56 10.23 137.51 10.23L137.51 10.23Q137.47 10.23 137.29 10.35Q137.12 10.46 136.96 10.57L136.96 10.57Q136.46 10.95 135.95 11.50Q135.44 12.05 134.95 12.71Q134.47 13.37 134.04 14.11Q133.62 14.84 133.31 15.58L133.31 15.58Q133.27 15.68 133.18 15.76Q133.10 15.85 133.04 15.85L133.04 15.85Q133 15.85 132.92 15.75Q132.85 15.65 132.78 15.51Q132.72 15.36 132.66 15.20Q132.61 15.05 132.61 14.94ZM148.51 15.67L148.51 15.67Q147.71 15.58 147.24 14.97Q146.76 14.35 146.76 13.40L146.76 13.40Q146.76 12.84 146.93 12.24Q147.10 11.63 147.41 11.07Q147.71 10.50 148.13 10.00Q148.55 9.49 149.04 9.13L149.04 9.13Q149.81 8.55 150.49 8.55L150.49 8.55Q150.93 8.79 151.37 9.55L151.37 9.55Q151.44 9.55 151.49 9.54Q151.55 9.53 151.62 9.53L151.62 9.53Q152.36 9.53 152.36 10.85L152.36 10.85Q152.36 11.73 152.08 12.52Q151.79 13.31 151.28 13.96Q150.77 14.60 150.06 15.04Q149.35 15.48 148.51 15.67ZM149.23 11.26L149.23 11.26Q148.99 11.58 148.78 11.96Q148.57 12.33 148.41 12.72Q148.26 13.10 148.18 13.46Q148.09 13.82 148.09 14.10L148.09 14.10Q148.09 14.43 148.20 14.74Q148.32 15.05 148.46 15.09L148.46 15.09Q149.09 14.95 149.61 14.57Q150.14 14.18 150.52 13.61Q150.91 13.03 151.12 12.31Q151.34 11.58 151.34 10.75L151.34 10.75Q151.34 10.39 151.30 10.18Q151.26 9.97 151.16 9.81L151.16 9.81Q150.54 10.00 150.06 10.40Q149.58 10.81 149.23 11.26ZM168.13 10.88L168.13 10.88Q167.90 10.89 167.58 11.16Q167.26 11.44 166.89 11.87Q166.52 12.29 166.12 12.81Q165.72 13.33 165.35 13.84Q164.98 14.35 164.65 14.80Q164.33 15.25 164.11 15.51L164.11 15.51Q163.80 15.39 163.58 15.14Q163.35 14.90 163.25 14.53L163.25 14.53Q163.32 14.10 163.45 13.63Q163.58 13.16 163.78 12.66Q163.98 12.15 164.28 11.60Q164.58 11.05 165.02 10.43L165.02 10.43Q164.81 10.44 164.44 10.73Q164.08 11.02 163.66 11.47Q163.24 11.93 162.79 12.50Q162.34 13.06 161.95 13.61L161.95 13.61Q161.43 14.34 161.09 14.88Q160.75 15.43 160.59 15.53L160.59 15.53Q160.23 15.26 160.09 14.95Q159.95 14.64 159.88 14.27L159.88 14.27Q159.89 13.93 159.99 13.43Q160.08 12.92 160.24 12.39L160.24 12.39Q160.57 11.37 161.08 10.36Q161.59 9.35 162.06 8.51L162.06 8.51Q162.46 8.60 162.77 8.78Q163.09 8.96 163.44 9.31L163.44 9.31Q163.30 9.74 163.00 10.23Q162.71 10.71 162.39 11.24Q162.06 11.77 161.80 12.33Q161.53 12.89 161.45 13.47L161.45 13.47Q161.84 12.91 162.38 12.18Q162.92 11.45 163.49 10.81Q164.05 10.16 164.61 9.72Q165.17 9.27 165.62 9.27L165.62 9.27Q165.79 9.27 165.98 9.32Q166.18 9.38 166.35 9.46Q166.52 9.55 166.63 9.63Q166.74 9.70 166.75 9.74L166.75 9.74Q166.68 10.02 166.43 10.51Q166.17 10.99 165.87 11.52Q165.58 12.05 165.33 12.55Q165.07 13.05 165.03 13.34L165.03 13.34Q165.72 12.40 166.32 11.64Q166.92 10.88 167.45 10.33Q167.99 9.79 168.44 9.49Q168.90 9.20 169.30 9.20L169.30 9.20Q169.58 9.20 169.83 9.34Q170.07 9.49 170.17 9.77L170.17 9.77Q170.04 10.19 169.76 10.78Q169.47 11.37 169.18 12.02Q168.88 12.67 168.65 13.30Q168.42 13.93 168.42 14.43L168.42 14.43Q168.42 14.73 168.50 14.82Q168.59 14.91 168.74 14.91L168.74 14.91Q168.91 14.91 169.06 14.85Q169.20 14.78 169.27 14.78L169.27 14.78Q169.36 14.84 169.37 14.92Q169.39 15.01 169.39 15.08L169.39 15.08Q169.11 15.30 168.81 15.45Q168.52 15.60 168.15 15.60L168.15 15.60Q167.82 15.60 167.60 15.48Q167.38 15.37 167.24 15.18Q167.10 14.98 167.05 14.73Q166.99 14.48 166.99 14.18L166.99 14.18Q166.99 13.71 167.12 13.24Q167.24 12.77 167.42 12.34Q167.59 11.91 167.79 11.54Q167.99 11.17 168.13 10.88ZM182.76 9.38L182.76 9.38Q182.70 10.25 182.45 10.87Q182.20 11.49 181.73 11.96Q181.26 12.43 180.59 12.81Q179.91 13.19 179.02 13.54L179.02 13.54Q179.02 13.62 179.01 13.71Q179.00 13.80 179.00 13.90L179.00 13.90Q179.00 14.08 179.03 14.28Q179.06 14.48 179.13 14.64Q179.20 14.81 179.33 14.92Q179.45 15.02 179.65 15.02L179.65 15.02Q180.03 15.02 180.39 14.85Q180.75 14.69 181.08 14.44Q181.41 14.20 181.70 13.91Q181.99 13.62 182.21 13.38L182.21 13.38Q182.35 13.51 182.45 13.62L182.45 13.62Q181.82 14.46 181.07 15.02Q180.32 15.57 179.65 15.72L179.65 15.72Q178.68 15.61 178.14 15.02Q177.60 14.42 177.60 13.58L177.60 13.58Q177.60 13.01 177.77 12.41Q177.93 11.82 178.21 11.26Q178.50 10.71 178.89 10.22Q179.27 9.73 179.71 9.37Q180.15 9.00 180.62 8.79Q181.09 8.58 181.55 8.58L181.55 8.58Q182.20 8.67 182.76 9.38ZM181.79 9.84L181.79 9.84Q181.41 9.90 181.01 10.15Q180.60 10.40 180.24 10.82Q179.89 11.24 179.59 11.80Q179.30 12.36 179.13 13.01L179.13 13.01Q180.25 12.45 180.99 11.63Q181.73 10.81 181.79 9.84Z"></path></g></svg>